<svg width="1200" height="900" viewBox="0 0 1200 900" fill="none" xmlns="http://www.w3.org/2000/svg">
  <rect width="1200" height="900" rx="48" fill="#E7F0EA"/>
  <rect x="92" y="96" width="1016" height="708" rx="42" fill="#FAFDFB" stroke="#BFD5C4" stroke-width="8"/>
  <rect x="144" y="140" width="912" height="92" rx="24" fill="#173B30"/>
  <path d="M190 186H378" stroke="#E7F0EA" stroke-width="18" stroke-linecap="round"/>
  <rect x="154" y="290" width="430" height="282" rx="30" fill="#F1F7F3" stroke="#D4E2D8" stroke-width="6"/>
  <path d="M184 520L256 452L324 474L414 360L500 402L554 332" stroke="#168A5A" stroke-width="18" stroke-linecap="round" stroke-linejoin="round"/>
  <circle cx="256" cy="452" r="14" fill="#168A5A"/>
  <circle cx="414" cy="360" r="14" fill="#168A5A"/>
  <circle cx="554" cy="332" r="14" fill="#D35D2F"/>
  <rect x="644" y="288" width="382" height="324" rx="30" fill="#173B30"/>
  <rect x="686" y="334" width="294" height="22" rx="11" fill="#E7F0EA"/>
  <rect x="686" y="382" width="232" height="16" rx="8" fill="#B2CDB9"/>
  <rect x="686" y="418" width="264" height="16" rx="8" fill="#B2CDB9" fill-opacity="0.75"/>
  <rect x="686" y="454" width="210" height="16" rx="8" fill="#B2CDB9" fill-opacity="0.5"/>
  <rect x="686" y="514" width="156" height="54" rx="18" fill="#D35D2F"/>
  <path d="M176 676H1018" stroke="#173B30" stroke-width="8" stroke-linecap="round" opacity="0.12"/>
  <text x="152" y="738" fill="#173B30" font-size="52" font-weight="700" font-family="Georgia, serif">Giải pháp bot giao dịch tự động theo nhu cầu</text>
</svg>
